<?xml version="1.0" encoding="utf-8"?>
<!-- Generator: Adobe Illustrator 23.0.0, SVG Export Plug-In . SVG Version: 6.00 Build 0)  -->
<svg version="1.1" id="Ebene_1" xmlns="http://www.w3.org/2000/svg" xmlns:xlink="http://www.w3.org/1999/xlink" x="0px" y="0px"
	 viewBox="0 0 193.68 82.52" style="enable-background:new 0 0 193.68 82.52;" xml:space="preserve">
<style type="text/css">
	.st0{fill:#FFFFFF;}
	.st1{fill:#1D1D1B;}
	.st2{fill:#E30613;}
</style>
<path class="st0" d="M1.85,1.47v55.84h55.84V1.47H1.85z M1.85,1.47"/>
<polyline class="st1" points="7.5,82.5 12.27,82.5 19.77,62.13 15.46,62.13 10.13,78.18 10.07,78.18 4.77,62.13 0,62.13 7.5,82.5 
	"/>
<path class="st1" d="M29.81,82.5c3.13,0.22,8.21-1.24,8.21-5.28c0-2.99-1.92-4.77-4.49-5.3v-0.06c2.03-0.68,3.58-2.23,3.58-4.46
	c0-3.98-3.72-5.5-7.36-5.27h-7.64V82.5H29.81 M26.48,70.31v-4.79h3.41c1.83,0,2.85,0.76,2.85,2.4c0,1.64-1.02,2.4-2.85,2.4H26.48z
	 M26.48,79.11v-5.42h3.41c2.06,0,3.47,0.37,3.47,2.71c0,2.34-1.41,2.71-3.47,2.71H26.48z"/>
<polyline class="st1" points="59.2,82.45 59.2,62.09 55.11,62.09 55.11,78.05 55.05,78.11 47.3,62.09 40.81,62.09 40.81,82.45 
	44.9,82.45 44.9,65.59 44.95,65.53 52.99,82.45 59.2,82.45 "/>
<path class="st1" d="M68.88,34.04h1.79l1.83,6.99h0.03l1.88-6.99h1.72l-2.77,9.07h-1.75L68.88,34.04z"/>
<path class="st1" d="M81.17,42.79c-0.34,0.14-1.04,0.43-2,0.43c-2.16,0-3.09-1.55-3.09-3.35c0-2,1.05-3.55,2.76-3.55
	c1.44,0,2.68,0.84,2.68,3.58v0.31h-3.87c0,1.14,0.45,1.83,1.7,1.83c0.99,0,1.46-0.3,1.76-0.52L81.17,42.79z M79.95,39.19
	c0-1.18-0.39-1.78-1.12-1.78c-0.84,0-1.2,0.9-1.2,1.78H79.95z"/>
<path class="st1" d="M82.81,37.53c0-0.42-0.01-0.81-0.05-1.1h1.46c0.01,0.4,0.05,0.82,0.05,1.22h0.03c0.2-0.52,0.7-1.33,1.7-1.33
	c0.1,0,0.18,0.03,0.27,0.04v1.51c-0.14-0.04-0.29-0.07-0.46-0.07c-0.66,0-1.39,0.4-1.39,1.65v3.67h-1.61V37.53z"/>
<path class="st1" d="M87.33,33.37h1.61v5.73h0.04l1.96-2.68h1.72l-2.35,3.03l2.57,3.67h-1.87l-2.03-3.26h-0.04v3.26h-1.61V33.37z"/>
<path class="st1" d="M98.62,42.79c-0.34,0.14-1.04,0.43-2,0.43c-2.16,0-3.09-1.55-3.09-3.35c0-2,1.05-3.55,2.76-3.55
	c1.44,0,2.68,0.84,2.68,3.58v0.31h-3.87c0,1.14,0.45,1.83,1.7,1.83c0.99,0,1.46-0.3,1.76-0.52L98.62,42.79z M97.39,39.19
	c0-1.18-0.39-1.78-1.12-1.78c-0.84,0-1.2,0.9-1.2,1.78H97.39z"/>
<path class="st1" d="M100.2,33.37h1.61v3.91h0.04c0.29-0.42,0.66-0.96,1.66-0.96c1.52,0,1.98,1.13,1.98,2.48v4.31h-1.61V39.1
	c0-1.03-0.26-1.46-0.92-1.46c-0.85,0-1.14,0.72-1.14,1.57v3.9h-1.61V33.37z"/>
<path class="st1" d="M107,37.53c0-0.42-0.01-0.81-0.05-1.1h1.46c0.01,0.4,0.05,0.82,0.05,1.22h0.03c0.2-0.52,0.7-1.33,1.7-1.33
	c0.1,0,0.18,0.03,0.27,0.04v1.51c-0.14-0.04-0.29-0.07-0.46-0.07c-0.66,0-1.39,0.4-1.39,1.65v3.67H107V37.53z"/>
<path class="st1" d="M111.22,41.56c0.26,0.1,0.92,0.44,1.68,0.44c0.58,0,1.04-0.14,1.04-0.66c0-0.26-0.13-0.51-0.71-0.85l-0.66-0.39
	c-0.68-0.4-1.42-0.83-1.42-1.88c0-0.92,0.9-1.9,2.31-1.9c0.86,0,1.52,0.22,1.68,0.27l-0.09,1.25c-0.4-0.16-0.83-0.3-1.42-0.3
	c-0.65,0-0.92,0.25-0.92,0.65c0,0.36,0.29,0.56,0.75,0.86l0.79,0.51c0.83,0.53,1.25,0.91,1.25,1.69c0,1.23-1.04,1.98-2.5,1.98
	c-0.83,0-1.52-0.2-1.86-0.33L111.22,41.56z"/>
<path class="st1" d="M116.09,36.42h1.66l1.37,5.16h0.03l1.38-5.16h1.56l-2.05,6.69h-1.9L116.09,36.42z"/>
<path class="st1" d="M127.86,42.79c-0.34,0.14-1.04,0.43-2,0.43c-2.16,0-3.09-1.55-3.09-3.35c0-2,1.05-3.55,2.76-3.55
	c1.44,0,2.68,0.84,2.68,3.58v0.31h-3.87c0,1.14,0.45,1.83,1.7,1.83c0.99,0,1.46-0.3,1.76-0.52L127.86,42.79z M126.64,39.19
	c0-1.18-0.39-1.78-1.12-1.78c-0.84,0-1.2,0.9-1.2,1.78H126.64z"/>
<path class="st1" d="M129.5,37.53c0-0.42-0.01-0.81-0.05-1.1h1.46c0.01,0.4,0.05,0.82,0.05,1.22h0.03c0.2-0.52,0.7-1.33,1.7-1.33
	c0.1,0,0.18,0.03,0.27,0.04v1.51c-0.14-0.04-0.29-0.07-0.46-0.07c-0.66,0-1.39,0.4-1.39,1.65v3.67h-1.61V37.53z"/>
<path class="st1" d="M135.66,33.37v4.02h0.03c0.23-0.52,0.77-1.07,1.73-1.07c1.44,0,2.31,1.27,2.31,3.46c0,1.86-0.69,3.45-2.35,3.45
	c-1.04,0-1.52-0.57-1.78-1.15h-0.04c0,0.45-0.03,0.85-0.05,1.04h-1.51c0.04-0.25,0.05-0.66,0.05-1.14v-8.61H135.66z M136.93,42.04
	c0.94,0,1.18-0.78,1.18-2.33c0-1.34-0.31-2.21-1.21-2.21c-0.88,0-1.25,0.95-1.25,2.25C135.66,41.01,135.98,42.04,136.93,42.04z"/>
<path class="st1" d="M146.29,42.01c0,0.42,0.01,0.81,0.05,1.1h-1.51c-0.01-0.34-0.05-0.69-0.05-1.03l-0.04-0.01l0.01,0.01
	c-0.31,0.49-0.73,1.13-1.78,1.13c-1.52,0-1.98-1.13-1.98-2.48v-4.32h1.61v4.02c0,1.03,0.29,1.46,0.96,1.46
	c0.86,0,1.11-0.78,1.11-1.64v-3.83h1.61V42.01z"/>
<path class="st1" d="M147.75,37.53c0-0.42-0.01-0.81-0.05-1.1h1.51c0.01,0.34,0.05,0.69,0.05,1.03h0.04h-0.01
	c0.23-0.4,0.69-1.13,1.78-1.13c1.52,0,1.98,1.13,1.98,2.48v4.31h-1.61V39.1c0-1.03-0.26-1.46-0.92-1.46c-0.85,0-1.14,0.72-1.14,1.57
	v3.9h-1.61V37.53z"/>
<path class="st1" d="M159.99,33.37v8.61c0,0.48,0.01,0.9,0.05,1.14h-1.51c-0.03-0.19-0.05-0.58-0.05-1.04h-0.04
	c-0.26,0.57-0.74,1.15-1.78,1.15c-1.66,0-2.35-1.59-2.35-3.45c0-2.18,0.87-3.46,2.31-3.46c0.96,0,1.5,0.55,1.73,1.07h0.03v-4.02
	H159.99z M157.11,42.04c0.95,0,1.27-1.03,1.27-2.29c0-1.3-0.36-2.25-1.25-2.25c-0.9,0-1.21,0.87-1.21,2.21
	C155.92,41.26,156.17,42.04,157.11,42.04z"/>
<path class="st1" d="M69.59,49.64h2.65c1.87,0,2.73,0.7,2.73,2.24c0,1.44-0.91,1.87-1.51,2.09V54c0.7,0.16,1.72,0.65,1.72,2.17
	c0,1.65-1.21,2.55-2.82,2.55h-2.77V49.64z M71.21,53.44h0.86c0.82,0,1.3-0.61,1.3-1.35c0-0.77-0.55-1.22-1.34-1.22h-0.82V53.44z
	 M71.21,57.44h0.92c0.9,0,1.39-0.54,1.39-1.39c0-0.79-0.42-1.39-1.44-1.39h-0.87V57.44z"/>
<path class="st1" d="M76.64,53.13c0-0.42-0.01-0.81-0.05-1.11h1.46c0.01,0.4,0.05,0.82,0.05,1.22h0.03c0.2-0.52,0.7-1.32,1.7-1.32
	c0.1,0,0.18,0.03,0.27,0.04v1.51c-0.14-0.04-0.29-0.07-0.46-0.07c-0.66,0-1.39,0.4-1.39,1.65v3.67h-1.61V53.13z"/>
<path class="st1" d="M85.95,58.39c-0.34,0.14-1.04,0.43-2,0.43c-2.16,0-3.09-1.55-3.09-3.35c0-2,1.05-3.55,2.76-3.55
	c1.44,0,2.68,0.84,2.68,3.57v0.31h-3.88c0,1.14,0.46,1.83,1.7,1.83c0.99,0,1.46-0.3,1.76-0.52L85.95,58.39z M84.73,54.79
	c0-1.18-0.39-1.78-1.12-1.78c-0.84,0-1.2,0.9-1.2,1.78H84.73z"/>
<path class="st1" d="M87.5,53.11c0-0.48-0.03-0.85-0.05-1.09h1.61c0.01,0.35,0.05,0.7,0.05,1.05h0.03c0.25-0.52,0.77-1.16,1.69-1.16
	c1.13,0,1.5,0.7,1.69,1.06c0.32-0.47,0.8-1.06,1.79-1.06c1.46,0,1.92,1.04,1.92,2.66v4.13h-1.61v-4.23c0-0.83-0.26-1.25-0.86-1.25
	c-0.71,0-1.09,0.68-1.09,1.42v4.06h-1.61v-4.23c0-0.83-0.26-1.25-0.86-1.25c-0.71,0-1.09,0.68-1.09,1.42v4.06H87.5V53.11z"/>
<path class="st1" d="M102.56,58.39c-0.34,0.14-1.04,0.43-2,0.43c-2.16,0-3.09-1.55-3.09-3.35c0-2,1.05-3.55,2.76-3.55
	c1.44,0,2.68,0.84,2.68,3.57v0.31h-3.87c0,1.14,0.45,1.83,1.7,1.83c0.99,0,1.46-0.3,1.76-0.52L102.56,58.39z M101.34,54.79
	c0-1.18-0.39-1.78-1.12-1.78c-0.85,0-1.2,0.9-1.2,1.78H101.34z"/>
<path class="st1" d="M104.15,53.13c0-0.42-0.01-0.81-0.05-1.11h1.51c0.01,0.34,0.05,0.69,0.05,1.03h0.04h-0.01
	c0.23-0.4,0.69-1.13,1.78-1.13c1.52,0,1.98,1.13,1.98,2.48v4.32h-1.61V54.7c0-1.03-0.26-1.46-0.92-1.46c-0.85,0-1.14,0.72-1.14,1.57
	v3.9h-1.61V53.13z"/>
<path class="st1" d="M113.07,49.51h1.14l-2.31,9.33h-1.09L113.07,49.51z"/>
<path class="st1" d="M116.51,49.64h1.98l3.02,7.12h0.03v-7.12h1.51v9.07h-1.99l-3-7.07h-0.03v7.07h-1.51V49.64z"/>
<path class="st1" d="M124.85,49.18h1.66v1.59h-1.66V49.18z M124.87,52.02h1.61v6.7h-1.61V52.02z"/>
<path class="st1" d="M133.01,58.39c-0.34,0.14-1.04,0.43-2,0.43c-2.16,0-3.09-1.55-3.09-3.35c0-2,1.05-3.55,2.76-3.55
	c1.44,0,2.68,0.84,2.68,3.57v0.31h-3.88c0,1.14,0.46,1.83,1.7,1.83c0.99,0,1.46-0.3,1.76-0.52L133.01,58.39z M131.79,54.79
	c0-1.18-0.39-1.78-1.12-1.78c-0.84,0-1.2,0.9-1.2,1.78H131.79z"/>
<path class="st1" d="M140.1,48.97v8.61c0,0.48,0.01,0.9,0.05,1.14h-1.51c-0.03-0.2-0.05-0.59-0.05-1.04h-0.04
	c-0.26,0.57-0.74,1.14-1.78,1.14c-1.66,0-2.35-1.59-2.35-3.45c0-2.18,0.87-3.46,2.31-3.46c0.96,0,1.5,0.54,1.73,1.06h0.03v-4.02
	H140.1z M137.21,57.64c0.95,0,1.28-1.03,1.28-2.29c0-1.3-0.37-2.25-1.25-2.25c-0.9,0-1.21,0.87-1.21,2.21
	C136.03,56.86,136.27,57.64,137.21,57.64z"/>
<path class="st1" d="M146.49,58.39c-0.34,0.14-1.04,0.43-2,0.43c-2.16,0-3.09-1.55-3.09-3.35c0-2,1.05-3.55,2.76-3.55
	c1.44,0,2.68,0.84,2.68,3.57v0.31h-3.88c0,1.14,0.46,1.83,1.7,1.83c0.99,0,1.46-0.3,1.76-0.52L146.49,58.39z M145.27,54.79
	c0-1.18-0.39-1.78-1.12-1.78c-0.84,0-1.2,0.9-1.2,1.78H145.27z"/>
<path class="st1" d="M148.13,53.13c0-0.42-0.01-0.81-0.05-1.11h1.46c0.01,0.4,0.05,0.82,0.05,1.22h0.03c0.2-0.52,0.7-1.32,1.7-1.32
	c0.1,0,0.18,0.03,0.27,0.04v1.51c-0.14-0.04-0.29-0.07-0.46-0.07c-0.66,0-1.39,0.4-1.39,1.65v3.67h-1.61V53.13z"/>
<path class="st1" d="M152.34,57.16c0.26,0.1,0.92,0.44,1.68,0.44c0.58,0,1.04-0.14,1.04-0.66c0-0.26-0.13-0.51-0.71-0.85l-0.66-0.39
	c-0.68-0.4-1.42-0.83-1.42-1.88c0-0.92,0.9-1.9,2.31-1.9c0.86,0,1.52,0.22,1.68,0.27l-0.09,1.25c-0.4-0.16-0.83-0.3-1.42-0.3
	c-0.65,0-0.92,0.25-0.92,0.65c0,0.36,0.29,0.56,0.75,0.86l0.79,0.51c0.83,0.53,1.25,0.91,1.25,1.69c0,1.23-1.04,1.98-2.5,1.98
	c-0.83,0-1.52-0.2-1.86-0.33L152.34,57.16z"/>
<path class="st1" d="M158.14,52.41c0.46-0.21,1.09-0.49,2.12-0.49c2.08,0,2.56,1.01,2.56,2.69v2.93c0,0.48,0.05,0.92,0.09,1.18
	h-1.46c-0.08-0.26-0.09-0.59-0.09-0.91h-0.03c-0.4,0.54-0.91,1.01-1.87,1.01c-1.04,0-2-0.71-2-1.96c0-1.82,1.48-2.28,3.52-2.28h0.32
	v-0.25c0-0.66-0.32-1.28-1.25-1.28c-0.81,0-1.52,0.39-1.83,0.65L158.14,52.41z M161.32,55.44h-0.14c-1.38,0-2.2,0.29-2.2,1.26
	c0,0.61,0.4,1.03,1.03,1.03c0.96,0,1.31-0.71,1.31-1.91V55.44z"/>
<path class="st1" d="M168.87,58.55c-0.38,0.14-0.94,0.27-1.59,0.27c-2.21,0-3.15-1.55-3.15-3.45c0-1.91,0.99-3.46,3.24-3.46
	c0.51,0,1.1,0.15,1.4,0.27l-0.09,1.28c-0.29-0.14-0.69-0.33-1.13-0.33c-1.22,0-1.76,0.82-1.76,2.25c0,1.25,0.6,2.21,1.83,2.21
	c0.39,0,0.92-0.18,1.14-0.32L168.87,58.55z"/>
<path class="st1" d="M169.86,48.97h1.61v3.91h0.04c0.29-0.42,0.66-0.96,1.66-0.96c1.52,0,1.98,1.13,1.98,2.48v4.32h-1.61V54.7
	c0-1.03-0.26-1.46-0.92-1.46c-0.85,0-1.14,0.72-1.14,1.57v3.9h-1.61V48.97z"/>
<path class="st1" d="M176.42,57.16c0.26,0.1,0.92,0.44,1.68,0.44c0.58,0,1.04-0.14,1.04-0.66c0-0.26-0.13-0.51-0.71-0.85l-0.66-0.39
	c-0.68-0.4-1.42-0.83-1.42-1.88c0-0.92,0.9-1.9,2.31-1.9c0.86,0,1.52,0.22,1.68,0.27l-0.09,1.25c-0.4-0.16-0.83-0.3-1.42-0.3
	c-0.65,0-0.92,0.25-0.92,0.65c0,0.36,0.29,0.56,0.75,0.86l0.79,0.51c0.83,0.53,1.25,0.91,1.25,1.69c0,1.23-1.04,1.98-2.5,1.98
	c-0.83,0-1.52-0.2-1.86-0.33L176.42,57.16z"/>
<path class="st1" d="M186.81,58.39c-0.34,0.14-1.04,0.43-2,0.43c-2.16,0-3.09-1.55-3.09-3.35c0-2,1.05-3.55,2.76-3.55
	c1.44,0,2.68,0.84,2.68,3.57v0.31h-3.88c0,1.14,0.46,1.83,1.7,1.83c0.99,0,1.46-0.3,1.76-0.52L186.81,58.39z M185.59,54.79
	c0-1.18-0.39-1.78-1.12-1.78c-0.84,0-1.2,0.9-1.2,1.78H185.59z"/>
<path class="st1" d="M188.39,53.13c0-0.42-0.01-0.81-0.05-1.11h1.51c0.01,0.34,0.05,0.69,0.05,1.03h0.04h-0.01
	c0.23-0.4,0.69-1.13,1.78-1.13c1.52,0,1.97,1.13,1.97,2.48v4.32h-1.61V54.7c0-1.03-0.26-1.46-0.92-1.46c-0.85,0-1.14,0.72-1.14,1.57
	v3.9h-1.61V53.13z"/>
<path class="st2" d="M29.86,10.28c-10.55,0-19.1,8.55-19.1,19.1c0,3.39,0.89,6.58,2.44,9.34l12.89-12.89l7.35,7.34L20.55,46.06
	c2.75,1.54,5.93,2.43,9.31,2.43c10.55,0,19.1-8.55,19.1-19.1C48.96,18.84,40.41,10.28,29.86,10.28"/>
<path class="st1" d="M55.73,55.35H10.18v-6.86H3.81V3.43H48.4l-9.29,9.3c3.07,1.72,5.62,4.27,7.34,7.34l9.29-9.29V55.35 M0.38,0
	v58.78h58.78V0H0.38z M0.38,0"/>
<polyline class="st1" points="2.02,49.9 26.08,25.84 33.43,33.18 9.37,57.24 2.02,49.9 "/>
</svg>
